<svg xmlns="http://www.w3.org/2000/svg" width="374" height="385" viewBox="0 0 374 385" version="1.1"><path d="M 79.814 1.078 C 42.997 6.479, 14.753 31.061, 3.257 67.712 L 0.500 76.500 0.500 192 L 0.500 307.500 2.680 315.665 C 11.110 347.232, 36.800 374.736, 65.939 383.389 C 81.126 387.899, 80 393.874, 80 308.777 C 80 221.436, 74.832 233, 113.864 233 C 172.669 233, 187 221.495, 187 174.287 L 187 158.846 184.077 155.923 L 181.154 153 132.577 153 C 73.616 153, 80 155.346, 80 133.682 C 80 104.455, 89.663 88.875, 112.125 81.884 C 121.457 78.979, 252.543 78.979, 261.875 81.884 C 274.403 85.783, 284.592 94.694, 290.299 106.741 L 293.500 113.500 293.816 189.500 C 294.046 244.795, 293.813 266.998, 292.962 271 C 290.209 283.947, 280.924 295.456, 268.130 301.782 L 260.609 305.500 211.217 306 L 161.825 306.500 159.375 309.349 L 156.926 312.198 157.213 346.688 L 157.500 381.179 159.861 383.089 C 163.046 385.667, 287.802 386.078, 299.685 383.550 C 338.455 375.300, 373 337.950, 373 304.281 C 373 302.270, 373.408 301.134, 374 301.500 C 374.664 301.911, 375 264.991, 375 191.500 C 375 118.009, 374.664 81.089, 374 81.500 C 373.420 81.859, 373 80.881, 373 79.171 C 373 44.837, 332.505 5.631, 292.284 1.023 C 281.630 -0.198, 88.169 -0.148, 79.814 1.078 M 0.483 192.500 C 0.483 253.550, 0.603 278.378, 0.750 247.673 C 0.897 216.968, 0.897 167.018, 0.750 136.673 C 0.603 106.328, 0.483 131.450, 0.483 192.500" stroke="none" fill="#ffffff" fill-rule="evenodd"/></svg>